<?xml version="1.0" encoding="UTF-8"?>
<svg xmlns="http://www.w3.org/2000/svg" xmlns:xlink="http://www.w3.org/1999/xlink" width="24px" height="24px" viewBox="0 0 24 24" version="1.1">
<g id="surface45356">
<path style=" stroke:none;fill-rule:nonzero;fill:rgb(20.392157%,28.627451%,36.862745%);fill-opacity:1;" d="M 5 3 C 3.90625 3 3 3.90625 3 5 L 3 19 C 3 20.09375 3.90625 21 5 21 L 19 21 C 20.09375 21 21 20.09375 21 19 L 21 5 C 21 3.90625 20.09375 3 19 3 Z M 5 5 L 19 5 L 19 19 L 5 19 L 5 13 L 11.585938 13 L 9.292969 15.292969 L 10.707031 16.707031 L 15.414062 12 L 10.707031 7.292969 L 9.292969 8.707031 L 11.585938 11 L 5 11 Z M 5 5 "/>
</g>
</svg>
